<?xml version="1.0" standalone="no"?>
<!DOCTYPE svg PUBLIC "-//W3C//DTD SVG 20010904//EN"
 "http://www.w3.org/TR/2001/REC-SVG-20010904/DTD/svg10.dtd">
<svg version="1.0" xmlns="http://www.w3.org/2000/svg"
 width="1300.000000pt" height="1232.000000pt" viewBox="0 0 1300.000000 1232.000000"
 preserveAspectRatio="xMidYMid meet">

<g transform="translate(0.000000,1232.000000) scale(0.100000,-0.100000)"
fill="#000000" stroke="none">
<path d="M11363 12291 c-124 -43 -209 -97 -423 -269 -121 -98 -378 -353 -465
-462 -142 -179 -313 -468 -366 -623 -17 -48 -42 -55 -113 -28 -31 11 -95 25
-143 31 -156 19 -307 -22 -404 -108 -99 -88 -144 -200 -137 -336 3 -47 12 -98
23 -121 10 -22 19 -45 20 -52 7 -32 78 -104 134 -138 10 -6 12 -4 6 6 -5 8 3
4 16 -8 53 -48 158 -66 289 -50 l65 8 12 -32 c11 -29 10 -35 -12 -61 -14 -16
-25 -40 -25 -52 0 -30 -49 -75 -75 -68 -11 2 -52 7 -92 9 -148 9 -210 -68
-234 -290 -6 -56 -17 -111 -24 -122 -7 -12 -38 -40 -69 -64 -50 -38 -60 -43
-92 -37 -39 8 -99 -8 -128 -33 -10 -9 -27 -33 -37 -53 -11 -21 -23 -38 -27
-38 -4 0 -31 39 -61 86 -113 176 -214 258 -356 286 -61 11 -311 17 -440 9
l-70 -5 -12 75 c-29 184 -48 284 -79 424 -57 256 -122 493 -164 595 -10 25
-27 72 -38 105 -30 89 -107 248 -165 345 -111 182 -365 379 -610 470 -224 84
-356 105 -652 105 -298 -1 -402 -15 -765 -102 -485 -115 -867 -332 -1152 -652
-43 -47 -78 -90 -78 -94 0 -4 -11 -19 -24 -33 -34 -38 -150 -247 -184 -334
-118 -300 -135 -548 -62 -910 24 -116 97 -374 140 -490 18 -47 40 -108 50
-137 10 -28 50 -127 89 -220 38 -92 71 -174 73 -181 2 -8 -24 -28 -58 -47
-179 -98 -326 -220 -370 -308 -15 -29 -30 -82 -36 -132 l-11 -83 -38 -6 c-21
-3 -51 -18 -68 -32 l-31 -26 -41 37 c-39 35 -44 37 -83 29 -107 -21 -180 7
-300 114 -76 68 -81 75 -106 151 -38 118 -68 144 -182 156 l-68 7 0 47 c0 65
-39 143 -90 180 -29 21 -62 33 -113 41 -112 19 -111 18 -75 96 28 59 31 78 38
207 5 78 13 153 20 167 8 18 39 39 100 69 130 63 204 114 296 205 92 92 135
169 154 277 29 165 -61 335 -213 405 -58 27 -70 29 -182 29 -109 -1 -127 -4
-190 -29 -187 -77 -343 -242 -411 -434 l-18 -53 -76 6 c-41 4 -78 10 -81 14
-13 13 -213 410 -268 533 -32 70 -62 124 -66 120 -5 -4 -5 -1 -1 6 14 24 -89
204 -155 271 -135 135 -341 197 -521 157 -138 -31 -236 -114 -273 -233 -26
-83 -17 -239 19 -317 31 -69 82 -150 140 -221 44 -53 45 -54 91 -106 120 -134
155 -196 155 -279 0 -60 0 -60 -30 -60 -38 0 -191 80 -398 209 -256 159 -350
201 -491 217 -252 28 -486 -194 -468 -445 10 -147 98 -273 237 -338 38 -18
125 -44 210 -63 191 -41 242 -56 320 -95 104 -53 175 -134 168 -193 -5 -45
-96 -71 -309 -87 -97 -7 -193 -17 -215 -21 -96 -17 -200 -97 -243 -187 -102
-211 78 -525 335 -582 117 -27 265 -2 389 63 65 35 191 118 200 132 4 7 26 -8
55 -39 26 -27 73 -66 103 -85 56 -36 178 -81 250 -93 31 -5 45 -15 69 -47 31
-43 33 -65 12 -189 -11 -66 29 -144 96 -190 24 -17 24 -19 21 -135 l-3 -117
34 -49 c70 -101 280 -185 465 -186 60 0 66 -2 123 -48 169 -136 632 -315 990
-381 204 -38 285 -45 485 -45 198 1 328 14 468 48 44 11 59 12 62 3 3 -7 25
-79 50 -162 64 -208 198 -625 251 -778 25 -70 60 -173 79 -230 18 -56 66 -192
105 -302 39 -110 75 -212 80 -227 8 -26 4 -30 -63 -75 -180 -120 -395 -320
-541 -505 -285 -360 -507 -790 -547 -1062 l-11 -71 -186 0 c-176 -1 -193 -2
-277 -28 -311 -96 -563 -314 -704 -609 -59 -123 -61 -141 -20 -186 l34 -37
-37 34 -37 34 -10 -40 c-43 -161 -43 -410 0 -577 l10 -38 27 23 27 24 -27 -30
-27 -30 28 -85 c15 -47 54 -141 87 -210 217 -452 584 -811 1084 -1061 411
-205 856 -319 1247 -319 546 0 954 226 1125 623 118 271 82 526 -99 716 l-63
66 0 63 c0 35 -11 121 -25 190 -137 699 -139 717 -140 917 0 186 7 213 67 258
l26 20 104 -46 c281 -125 320 -124 918 28 140 36 289 74 330 85 41 12 98 27
125 35 82 22 533 153 635 183 52 16 149 45 215 65 421 126 915 285 1235 397
113 40 212 74 220 76 16 5 136 -98 170 -146 l21 -29 -40 -51 c-26 -33 -38 -57
-34 -68 10 -27 55 -72 101 -99 23 -14 40 -29 37 -34 -8 -12 20 -74 45 -99 l21
-21 -21 -26 c-36 -46 -25 -114 30 -177 31 -35 32 -38 25 -98 -10 -89 -39 -208
-71 -290 -24 -60 -30 -69 -48 -63 -175 53 -444 -97 -600 -335 -193 -294 -205
-614 -37 -984 16 -36 33 -66 37 -66 4 0 19 10 33 22 22 20 22 18 -3 -9 l-28
-31 68 -104 c89 -135 164 -226 288 -351 201 -204 337 -318 537 -451 170 -114
340 -192 529 -243 96 -25 120 -28 270 -27 147 0 177 3 270 27 58 15 129 37
157 47 102 38 263 126 325 178 13 11 53 45 90 77 145 121 287 340 323 498 19
86 19 223 0 304 -48 202 -205 375 -459 503 -121 61 -226 138 -226 164 0 7 9
21 20 31 11 10 45 55 74 99 206 310 318 672 357 1145 20 252 -17 576 -98 841
-83 274 -207 518 -372 735 -208 274 -552 590 -890 819 -44 29 -100 63 -125 76
-25 12 -48 26 -52 31 -3 5 -23 18 -44 29 -39 20 -59 55 -65 117 -4 33 -102
430 -159 643 -19 69 -48 179 -65 245 -18 66 -40 147 -51 180 -10 33 -20 69
-23 80 -5 21 -73 254 -127 435 -38 130 -156 502 -175 552 l-13 38 36 9 c21 5
64 15 97 21 146 28 347 91 511 159 84 34 359 171 412 205 247 155 333 220 357
266 8 16 41 44 72 64 32 19 75 51 95 71 64 63 85 171 52 268 l-16 47 41 46
c23 26 46 65 53 88 8 26 31 60 64 94 29 29 63 74 75 99 26 54 36 139 21 181
-10 29 -10 29 53 51 218 77 436 323 495 558 9 37 15 43 46 49 19 3 81 0 137
-8 129 -17 215 -8 357 38 188 61 316 150 386 269 25 42 29 61 29 120 0 85 -26
143 -95 211 -150 149 -364 145 -750 -15 -41 -17 -76 -31 -77 -31 -9 0 0 40 18
77 27 55 47 65 195 98 272 61 433 166 515 335 64 131 47 270 -45 382 -95 117
-282 162 -502 124 -144 -26 -236 -70 -538 -259 -11 -7 -65 -45 -119 -85 -55
-40 -126 -87 -158 -103 -105 -52 -105 -38 -1 64 72 71 114 106 267 217 78 56
177 158 202 207 89 170 10 357 -192 452 -127 60 -225 66 -352 22z m255 -95
c63 -17 136 -71 175 -128 22 -34 27 -52 27 -103 0 -56 -4 -69 -40 -123 -39
-58 -93 -110 -179 -172 -32 -23 -46 -28 -59 -21 -10 5 -56 19 -102 31 -85 22
-146 48 -190 82 -33 25 -70 87 -70 116 0 12 -5 22 -11 22 -17 0 -1 -99 22
-136 43 -71 134 -131 247 -165 36 -11 58 -29 34 -29 -5 0 -42 -33 -82 -72
l-73 -73 -93 1 c-82 1 -100 5 -158 33 -38 18 -85 52 -111 78 -47 50 -70 53
-40 6 58 -92 208 -173 321 -173 51 0 52 -1 41 -23 -10 -22 -12 -22 -171 -19
-166 4 -262 -7 -403 -46 -77 -20 -87 -45 -15 -34 26 4 130 7 232 6 198 0 316
-17 477 -70 230 -75 448 -246 621 -489 21 -28 39 -44 48 -41 7 3 16 1 19 -4 8
-13 48 -12 123 4 l62 13 20 -65 c27 -86 26 -183 -2 -268 l-22 -66 -50 6 c-28
3 -75 6 -103 6 l-53 0 0 65 c0 66 -16 164 -30 178 -4 5 -11 -24 -15 -65 -8
-89 -37 -216 -64 -285 -32 -82 -83 -183 -93 -183 -4 0 -8 -6 -8 -12 0 -25
-140 -178 -200 -218 -122 -83 -221 -113 -380 -114 -88 -1 -138 4 -210 22 -113
27 -114 27 -118 9 -8 -38 99 -108 203 -133 l50 -12 -37 -16 c-21 -9 -64 -16
-100 -16 -50 0 -60 -2 -49 -12 8 -9 43 -13 99 -13 77 0 92 3 135 28 36 21 58
27 90 25 l42 -3 3 -47 c4 -57 -22 -112 -73 -156 -71 -63 -86 -67 -250 -66
-295 1 -631 81 -775 184 -35 25 -47 26 -29 3 11 -16 11 -16 -1 -5 -8 7 -15 18
-15 25 0 7 -12 12 -27 12 -15 -1 -24 3 -21 8 3 5 -34 48 -81 96 -79 79 -100
109 -156 221 -43 86 -59 160 -40 190 8 12 20 5 67 -41 69 -67 123 -104 221
-151 60 -29 79 -45 113 -92 37 -52 143 -135 157 -122 2 3 -14 24 -37 47 -36
37 -43 40 -59 28 -15 -13 -16 -12 -4 3 11 14 11 22 -3 47 -8 17 -14 31 -13 31
2 0 19 -4 37 -10 24 -7 39 -6 48 2 11 9 13 8 11 -2 -7 -29 154 -39 262 -16 82
18 221 77 269 115 52 41 101 130 122 219 21 88 24 152 9 238 -16 87 -17 89
-38 73 -15 -12 -15 -12 1 7 17 21 17 23 -3 75 -12 30 -32 75 -45 100 l-24 47
86 -24 c47 -13 96 -30 108 -38 14 -9 26 -11 34 -5 7 6 8 5 2 -2 -9 -11 29 -62
152 -203 95 -109 232 -176 361 -176 128 0 197 56 91 73 -144 23 -220 42 -264
66 -60 32 -283 244 -249 237 13 -3 49 -8 81 -11 46 -5 57 -4 57 8 0 17 -156
71 -174 60 -6 -3 -8 -3 -4 2 4 4 -63 31 -150 60 -216 72 -240 82 -294 127 -60
49 -174 110 -259 137 -36 12 -81 33 -99 46 -41 30 -65 33 -51 8 8 -17 0 -18
-115 -18 -68 0 -124 2 -124 3 0 2 30 54 66 115 37 62 87 146 111 188 104 175
266 369 459 550 84 78 297 252 348 283 27 17 26 16 -11 -35 -27 -37 -49 -56
-72 -62 -40 -10 -192 -153 -228 -214 -13 -23 -29 -57 -34 -76 -8 -30 -18 -38
-77 -65 -53 -24 -80 -44 -121 -90 -61 -72 -121 -181 -121 -224 0 -21 -9 -37
-32 -56 -81 -67 -198 -204 -198 -233 0 -22 22 -4 71 59 65 82 112 128 162 153
27 14 37 26 37 43 0 93 111 236 229 295 75 38 101 63 101 96 0 44 35 97 112
171 55 53 86 75 125 88 44 15 56 24 70 54 25 56 145 167 216 202 70 34 129 38
215 16z m-4958 -500 c247 -30 446 -106 669 -255 200 -133 315 -300 444 -642
48 -128 78 -224 146 -464 38 -134 151 -670 151 -716 0 -16 -4 -17 -26 -9 -14
6 -36 10 -49 10 -27 0 -31 9 -40 95 -15 142 -116 622 -164 780 -10 33 -28 94
-41 135 -32 109 -112 304 -160 396 -77 145 -157 243 -260 321 -192 145 -404
238 -635 279 -138 24 -455 24 -620 0 -226 -32 -530 -109 -710 -179 -105 -40
-313 -147 -376 -192 -27 -19 -52 -35 -55 -35 -16 0 -153 -122 -243 -216 -185
-194 -302 -407 -373 -679 -20 -78 -23 -114 -23 -270 0 -150 4 -199 24 -295 61
-299 171 -621 349 -1020 l60 -134 -37 -52 -36 -52 -17 32 c-9 17 -36 74 -59
126 -22 52 -49 113 -59 135 -107 241 -238 634 -285 855 -83 398 -53 692 105
1009 95 190 272 405 450 545 270 213 629 360 1098 451 270 53 550 67 772 41z
m5780 -20 c0 -2 -26 -12 -57 -22 -83 -25 -110 -40 -184 -102 -63 -53 -69 -56
-117 -53 -84 4 -213 -47 -227 -91 -10 -28 -29 -37 -106 -48 -86 -13 -168 -49
-202 -89 -23 -27 -25 -28 -52 -13 l-29 15 47 18 c50 20 62 27 168 96 37 24 69
43 72 43 3 0 35 18 72 41 177 107 358 179 500 198 72 10 115 13 115 7z m165
-67 c89 -23 139 -153 103 -272 -13 -45 -80 -118 -147 -162 -39 -26 -44 -27
-95 -17 -90 18 -141 49 -216 129 -74 81 -85 71 -25 -22 40 -62 87 -107 142
-135 24 -12 41 -25 38 -30 -2 -4 -37 -17 -77 -29 -40 -13 -98 -32 -128 -43
-30 -11 -65 -20 -78 -20 -40 0 -179 144 -213 222 -23 52 -28 33 -8 -31 27 -86
65 -153 116 -203 l44 -42 -23 -42 c-13 -23 -26 -42 -30 -42 -4 0 -14 12 -22
28 -24 45 -159 176 -232 225 -38 25 -96 58 -129 73 -33 16 -62 30 -64 32 -3 1
4 11 15 22 30 31 131 62 215 68 76 4 77 5 98 42 28 50 96 80 183 80 69 0 84 7
155 71 47 43 132 89 183 100 55 11 147 10 195 -2z m-5870 -83 c61 -14 124 -31
140 -37 166 -62 260 -112 394 -211 l93 -70 -47 -48 -48 -49 -31 25 c-458 374
-876 447 -1576 274 -120 -30 -316 -111 -439 -183 -25 -14 -50 -23 -55 -20 -6
4 -8 3 -4 -2 4 -4 -13 -21 -39 -38 -103 -68 -284 -259 -378 -397 -63 -93 -152
-305 -181 -430 -10 -41 -18 -76 -19 -78 -1 -1 -22 7 -46 18 -24 11 -56 20 -71
20 -16 0 -28 6 -28 13 0 31 53 176 63 170 6 -3 7 -1 3 5 -9 14 33 114 45 106
5 -3 6 2 3 10 -3 8 4 29 15 45 12 16 21 34 21 39 0 6 6 17 13 24 6 8 19 27 28
43 9 17 21 29 28 27 7 -1 10 1 7 6 -7 12 120 167 192 234 140 129 392 292 423
273 5 -4 9 -2 9 2 0 26 340 147 514 182 175 36 336 64 436 75 19 2 123 3 230
1 165 -3 212 -8 305 -29z m703 -415 c146 -202 310 -685 413 -1219 21 -114 41
-214 43 -224 5 -21 -16 -26 -86 -20 l-56 4 9 32 c24 84 -4 348 -56 531 -100
348 -226 624 -365 801 l-48 61 46 47 c26 25 49 46 52 46 3 0 24 -27 48 -59z
m-2036 -145 c32 -7 68 -21 82 -29 15 -10 27 -13 31 -7 3 6 24 10 46 10 21 0
39 5 39 10 0 6 18 10 40 10 22 0 40 -4 40 -9 0 -10 61 -33 76 -30 22 6 84 -15
84 -27 0 -8 -5 -14 -11 -14 -5 0 -7 -5 -3 -11 4 -8 9 -7 15 2 10 16 11 15 38
-38 11 -23 25 -44 31 -48 5 -3 10 -19 10 -35 0 -15 4 -30 8 -32 5 -1 11 -55
14 -118 2 -63 3 -98 1 -77 -5 43 -23 50 -23 8 0 -16 -6 -34 -13 -40 -8 -6 -22
-29 -32 -51 -10 -22 -23 -40 -30 -40 -6 0 -21 -18 -34 -40 -18 -32 -28 -40
-50 -40 -16 0 -41 -7 -57 -14 -15 -8 -31 -13 -35 -11 -4 3 -10 -2 -13 -11 -4
-10 -2 -13 6 -8 7 5 8 3 4 -5 -5 -7 0 -21 10 -32 14 -16 20 -17 33 -6 14 10
14 10 3 -5 -9 -11 -10 -18 -2 -23 5 -3 10 -2 10 3 0 6 8 13 18 16 16 7 16 6
-1 -11 -17 -17 -2 -33 345 -382 200 -201 360 -363 356 -361 -4 3 -153 150
-331 328 -178 177 -327 319 -331 315 -4 -5 -6 -3 -5 2 2 6 -11 25 -30 43 -32
32 -48 41 -36 22 10 -16 -1 -11 -16 7 -10 11 -10 14 -1 9 22 -13 13 4 -15 29
-25 21 -29 22 -35 7 -6 -15 -7 -15 -7 1 -1 10 -6 15 -11 12 -6 -4 -9 -1 -8 5
2 7 -5 16 -14 21 -10 5 -26 13 -35 18 -10 5 -17 15 -15 24 1 8 -3 15 -10 14
-48 -2 -71 7 -105 38 -32 30 -36 37 -23 46 12 9 11 9 -5 4 -11 -4 -28 -9 -37
-12 -11 -3 -14 -11 -10 -21 5 -15 4 -15 -11 -3 -13 10 -15 17 -6 27 6 8 15 11
20 8 5 -3 9 0 9 5 0 22 -17 9 -105 -80 -171 -174 -253 -215 -348 -175 -152 63
-185 286 -73 501 34 65 157 196 221 236 115 71 223 92 337 65z m109 -19 c-5
-5 -17 -5 -28 2 -16 9 -15 10 9 9 16 -2 24 -6 19 -11z m4987 -111 c84 -23 213
-91 286 -152 108 -89 183 -204 216 -332 7 -27 15 -40 22 -36 7 5 8 2 3 -6 -4
-7 -9 -65 -9 -129 -2 -106 -4 -122 -30 -174 -61 -126 -118 -164 -271 -180
-150 -15 -264 0 -394 52 -115 46 -198 98 -257 163 -43 46 -69 86 -61 94 2 2
37 -7 78 -21 70 -24 99 -26 99 -7 0 15 -64 74 -115 107 -71 45 -131 57 -281
53 -108 -2 -138 1 -183 17 -97 36 -161 139 -161 259 1 98 63 181 174 232 l60
27 38 -43 c22 -24 44 -64 53 -93 20 -66 19 -199 -1 -267 l-16 -53 -68 6 c-82
7 -123 26 -153 72 -12 19 -25 35 -29 35 -34 0 46 -98 97 -121 47 -21 190 -38
315 -39 42 0 105 -8 143 -19 57 -15 67 -16 67 -4 0 8 -9 17 -20 20 -26 7 -26
7 9 51 48 60 73 136 73 222 0 41 -5 88 -11 104 -6 16 -10 30 -8 32 1 2 36 -19
77 -46 45 -30 78 -46 84 -40 14 14 -48 102 -115 164 -32 30 -59 57 -59 60 0
20 270 14 348 -8z m-576 -27 c29 -6 85 -24 125 -41 58 -24 74 -35 87 -63 19
-38 21 -132 5 -189 -18 -65 -78 -186 -93 -186 -7 0 -33 7 -56 15 -24 9 -77 15
-122 15 -63 0 -78 3 -70 13 6 6 16 40 23 74 10 49 10 75 1 128 -15 77 -53 163
-88 196 -13 12 -24 26 -24 30 0 18 138 23 212 8z m2793 -4 c22 -7 32 -13 22
-14 -10 -1 -41 -11 -68 -22 -48 -21 -51 -21 -89 -4 -51 23 -87 18 -262 -39
-162 -53 -226 -65 -238 -45 -12 18 -3 29 24 29 27 0 169 34 253 61 137 45 284
59 358 34z m-141 -76 c16 -7 35 -35 56 -81 29 -63 32 -78 32 -166 -1 -139 -4
-144 -104 -175 -85 -28 -234 -55 -243 -45 -3 3 -1 18 5 33 32 85 24 259 -15
335 -8 16 -15 32 -15 35 0 7 78 42 135 60 51 17 117 18 149 4z m258 0 c26 -14
58 -84 58 -130 0 -62 -51 -135 -135 -195 l-30 -22 -1 72 c-1 80 -23 151 -65
214 -15 23 -27 42 -26 42 1 0 20 7 42 15 48 17 128 19 157 4z m-11380 -41 c83
-44 159 -129 185 -207 18 -55 25 -64 63 -85 62 -33 104 -114 106 -204 l1 -65
53 -26 c73 -36 170 -150 203 -239 13 -37 30 -91 38 -121 12 -47 12 -55 -1 -59
-49 -17 -155 -146 -219 -267 -17 -33 -54 -89 -80 -125 -27 -36 -50 -71 -50
-77 -1 -7 -5 -13 -9 -13 -4 0 -15 -12 -24 -27 -35 -59 -106 -137 -163 -179
-46 -35 -83 -50 -142 -59 -71 -11 -51 -28 27 -23 44 2 70 0 70 -7 0 -5 -7 -53
-14 -105 -19 -130 -62 -234 -124 -302 -31 -34 -24 -46 13 -22 40 26 113 120
150 193 39 79 60 189 47 247 l-9 40 85 70 c46 38 101 87 122 110 l37 41 7 -77
c7 -83 29 -159 68 -233 28 -52 118 -177 128 -177 3 0 23 17 43 38 l38 38 -22
20 c-50 45 -104 141 -130 233 -49 172 -1 360 128 505 64 72 105 96 190 112 43
8 93 19 111 24 l34 9 -4 -52 c-5 -78 15 -66 71 43 l48 95 51 -2 c63 -3 113
-32 198 -118 42 -42 66 -76 78 -111 10 -27 24 -62 32 -78 11 -21 11 -26 2 -18
-10 8 -28 -3 -74 -48 -34 -33 -59 -62 -56 -64 6 -7 78 45 151 108 31 26 67 58
81 70 14 12 63 53 110 91 158 128 200 186 200 274 0 27 -4 52 -9 55 -5 3 -25
-29 -46 -71 -30 -64 -51 -91 -118 -153 -44 -41 -115 -109 -158 -152 l-77 -76
-6 31 c-3 18 -5 34 -5 37 5 17 -51 100 -107 160 -46 48 -86 80 -130 101 -35
18 -64 35 -64 40 0 12 92 119 138 162 33 29 50 37 80 37 129 -1 256 -74 330
-189 45 -70 54 -51 12 27 -52 98 -137 173 -231 205 l-44 15 30 13 c17 6 71 14
120 16 108 6 179 -16 237 -72 110 -107 113 -247 8 -386 -60 -80 -119 -131
-270 -231 -63 -42 -134 -96 -157 -120 -45 -46 -89 -126 -100 -179 -6 -30 -4
-32 17 -26 23 6 23 5 18 -76 -5 -68 -12 -95 -41 -153 -84 -168 -248 -262 -404
-233 -66 12 -111 34 -175 83 l-46 34 -38 -40 -39 -39 45 -39 c49 -42 141 -92
206 -110 23 -7 79 -11 130 -9 76 3 99 9 154 36 36 17 79 45 95 60 66 63 67 63
60 2 -18 -153 -98 -314 -176 -355 -16 -8 -27 -19 -24 -24 11 -17 82 28 129 82
70 80 138 222 161 336 4 17 10 32 13 32 4 0 36 -15 72 -33 83 -41 103 -75 97
-162 -8 -116 -102 -261 -269 -417 -298 -278 -569 -428 -804 -445 -96 -7 -140
5 -190 53 -35 32 -36 35 -28 81 12 70 8 110 -15 149 l-20 34 27 -7 c15 -5 90
-8 167 -7 148 1 213 16 275 63 36 29 20 34 -32 11 -54 -24 -143 -35 -195 -25
-21 4 -31 10 -23 12 66 22 151 61 180 82 53 39 110 103 110 123 0 15 -7 13
-51 -13 -128 -75 -252 -109 -429 -116 -159 -6 -285 18 -406 77 -89 45 -191
134 -213 188 -16 37 -47 46 -35 10 3 -13 11 -29 17 -36 13 -16 6 -23 -67 -67
-56 -33 -59 -34 -85 -19 -58 35 -122 164 -136 276 -12 93 -29 60 -22 -41 8
-114 28 -175 76 -236 22 -27 39 -51 37 -52 -15 -15 -154 -53 -176 -48 -33 7
-81 56 -108 110 -25 52 -69 188 -77 243 -11 67 -25 49 -25 -31 0 -93 31 -217
70 -280 17 -27 30 -50 30 -52 0 -2 -17 1 -37 6 -145 38 -266 172 -280 312 -7
69 7 107 52 141 51 39 105 47 155 25 l41 -19 39 26 c58 39 116 42 163 10 21
-14 39 -26 41 -26 1 0 26 23 54 50 45 43 58 50 92 50 35 0 40 -3 45 -27 26
-121 47 -183 63 -183 5 0 12 67 15 149 13 288 100 526 267 726 82 98 227 218
350 288 64 36 205 84 316 106 52 10 98 22 101 25 17 17 -25 30 -106 34 -132 6
-261 -25 -392 -94 -26 -13 -49 -24 -53 -24 -3 0 -6 15 -6 33 0 17 -11 56 -25
85 -14 30 -25 58 -25 64 0 17 80 104 123 134 47 33 147 80 190 89 30 6 37 25
9 25 -43 0 -167 -40 -218 -71 -31 -19 -75 -55 -99 -81 l-42 -47 -79 96 c-44
52 -87 108 -97 123 l-18 28 73 74 c84 85 166 131 271 150 96 18 90 38 -10 38
-66 0 -88 -5 -140 -30 -71 -33 -138 -96 -180 -170 l-29 -50 -46 87 c-58 110
-77 194 -59 260 16 61 50 106 107 139 108 63 169 69 256 22z m226 -102 c77
-72 127 -147 227 -341 101 -195 205 -372 270 -462 l46 -62 -33 -9 -33 -8 -34
95 c-59 164 -126 264 -216 322 -50 33 -52 36 -58 88 -8 70 -49 154 -102 205
-23 23 -45 54 -49 70 -10 41 -52 111 -90 148 -53 53 9 13 72 -46z m127 -66
c10 -11 16 -20 13 -20 -3 0 -13 9 -23 20 -10 11 -16 20 -13 20 3 0 13 -9 23
-20z m61 -62 l29 -33 -32 29 c-31 28 -38 36 -30 36 2 0 16 -15 33 -32z m5479
-218 c-173 -174 -210 -216 -175 -196 109 59 194 59 260 -1 68 -60 63 -143 -12
-228 -137 -156 -389 -132 -388 37 1 18 7 44 15 58 8 14 14 29 15 35 0 5 -102
-91 -227 -215 -126 -124 -14 -10 247 253 261 262 477 477 480 477 3 0 -94 -99
-215 -220z m2046 63 c13 -16 12 -17 -3 -4 -17 13 -22 21 -14 21 2 0 10 -8 17
-17z m-3826 -51 c-6 -7 -35 18 -35 31 0 5 9 2 20 -8 11 -10 18 -20 15 -23z
m3866 11 c13 -16 12 -17 -3 -4 -17 13 -22 21 -14 21 2 0 10 -8 17 -17z m-4991
-8 c14 -3 41 -14 61 -23 l37 -17 -5 -135 c-18 -455 148 -1061 349 -1276 l28
-30 -65 -58 -65 -57 -19 43 c-11 24 -40 90 -66 148 -70 158 -177 447 -223 605
-72 247 -94 363 -100 532 -6 193 3 286 26 279 10 -2 28 -7 42 -11z m5031 -32
c13 -16 12 -17 -3 -4 -10 7 -18 15 -18 17 0 8 8 3 21 -13z m-8958 -299 c113
-26 229 -84 487 -244 101 -62 224 -126 263 -135 34 -9 34 -19 0 -51 l-26 -24
-31 47 c-39 59 -100 93 -168 93 -73 0 -107 20 -170 96 -64 79 -108 101 -229
114 -62 7 -74 12 -113 48 -28 26 -58 43 -82 48 -37 7 -128 -4 -169 -21 -14 -6
-17 -5 -10 3 14 14 103 40 143 41 18 1 65 -6 105 -15z m-42 -58 c11 -7 32 -31
48 -51 l28 -39 79 0 c109 -1 159 -27 225 -115 63 -83 85 -95 161 -88 104 9
147 -15 178 -104 13 -36 12 -38 -32 -95 -52 -68 -126 -195 -158 -272 l-23 -52
-21 22 c-28 30 -83 71 -123 92 -81 41 -59 217 43 342 24 29 44 56 44 59 0 26
-96 -62 -133 -121 -31 -50 -57 -135 -57 -186 0 -42 -1 -42 -50 -27 -53 16
-180 46 -227 54 -37 6 -43 11 -54 42 -21 64 1 154 71 293 22 44 36 80 31 80
-16 0 -80 -86 -122 -164 -32 -61 -42 -91 -48 -146 l-6 -70 -60 29 c-151 72
-199 205 -136 372 30 78 48 99 108 125 102 45 188 53 234 20z m9283 -49 c-8
-67 17 -172 61 -252 17 -33 35 -83 39 -110 12 -80 84 -213 158 -291 41 -43
126 -88 156 -82 12 3 3 11 -27 27 -49 26 -90 64 -127 121 -15 22 -31 37 -37
33 -6 -3 -7 -1 -3 5 4 6 -2 29 -14 51 -30 60 -24 69 18 28 36 -36 39 -36 57
-19 19 17 19 16 2 -4 -17 -21 -16 -22 75 -91 163 -123 292 -190 463 -241 113
-33 145 -40 264 -52 89 -10 235 0 284 19 53 20 57 16 57 -51 0 -42 -7 -75 -21
-105 -39 -80 -169 -159 -379 -230 -61 -20 -110 -42 -110 -49 0 -13 16 -12 129
7 30 5 56 7 58 5 4 -4 -186 -123 -272 -171 -380 -212 -680 -316 -1100 -381
-212 -33 -763 -18 -875 24 -14 5 -50 12 -80 16 l-55 7 30 -21 c17 -11 60 -32
97 -46 57 -23 66 -29 58 -44 -14 -26 -60 -53 -92 -54 -45 -2 -34 -26 11 -26
28 0 49 8 73 28 18 15 34 29 36 32 15 29 19 30 70 15 l52 -16 0 -54 c0 -104
54 -278 153 -495 19 -42 52 -121 72 -175 21 -55 53 -138 70 -185 62 -162 92
-213 171 -290 78 -77 98 -115 81 -161 -14 -36 -3 -57 38 -75 43 -18 66 -52 72
-107 6 -61 -4 -71 -58 -56 -90 25 -360 6 -673 -47 -83 -14 -162 -28 -176 -31
l-25 -5 22 16 c13 9 35 37 49 62 23 39 26 53 22 112 -3 59 -8 74 -37 111 -41
51 -97 81 -167 88 -59 6 -65 12 -34 31 54 34 100 228 107 452 l4 145 -49 150
c-28 83 -66 195 -87 250 -20 55 -49 136 -65 180 -51 144 -150 377 -230 540
-112 230 -184 335 -254 372 -48 25 -177 19 -389 -18 -194 -34 -709 -170 -922
-244 -38 -13 -124 -43 -190 -65 -153 -53 -265 -98 -433 -172 -157 -70 -199
-92 -307 -163 -178 -118 -207 -172 -213 -402 -3 -118 1 -181 17 -285 28 -181
103 -501 125 -537 5 -8 10 -28 12 -45 4 -41 136 -439 172 -518 46 -100 159
-205 319 -295 58 -32 77 -38 128 -37 33 0 95 8 138 18 l78 18 -18 22 -18 21
23 -19 c22 -19 23 -19 140 13 64 18 157 44 207 57 49 14 101 32 114 41 15 9
21 10 16 2 -6 -9 -3 -10 11 -5 29 12 56 21 239 76 242 73 423 129 474 148 43
15 43 15 62 -9 19 -25 28 -42 73 -139 28 -60 77 -102 136 -117 l35 -9 -70 -18
c-253 -65 -619 -186 -845 -280 -30 -13 -97 -40 -147 -61 -51 -21 -93 -42 -93
-47 0 -5 -4 -7 -9 -4 -5 3 -53 -15 -107 -40 -55 -25 -119 -55 -144 -66 -112
-51 -251 -119 -310 -153 -36 -21 -92 -52 -125 -69 -82 -44 -150 -83 -212 -123
-48 -30 -59 -33 -131 -33 -76 0 -263 -29 -330 -51 -18 -6 -35 -9 -37 -7 -3 2
9 31 25 64 19 38 29 75 30 104 0 60 -53 188 -120 285 -15 22 -31 55 -34 72 -4
18 -25 54 -47 80 -46 56 -48 81 -13 140 39 67 36 126 -13 248 -22 55 -61 165
-87 245 -77 238 -153 418 -218 513 l-19 27 96 0 c112 0 121 12 33 44 l-56 21
64 68 c36 37 62 72 59 77 -4 6 -35 -10 -69 -35 -68 -48 -320 -177 -440 -225
-157 -62 -382 -114 -546 -125 -88 -7 -98 -10 -130 -39 l-35 -31 29 33 30 32
-70 0 c-366 2 -862 126 -1267 320 -96 46 -100 48 -67 52 55 5 46 31 -15 41
-405 65 -555 117 -608 211 -12 22 -27 186 -16 186 3 0 15 -10 27 -23 12 -13
44 -34 70 -48 67 -34 213 -34 322 0 235 74 533 256 709 432 97 97 101 100 70
51 -19 -29 -40 -65 -48 -79 -30 -56 -206 -220 -286 -267 -103 -60 -66 -63 48
-4 209 109 386 322 431 518 38 166 41 240 9 303 -11 21 -11 27 -1 27 20 0 112
-45 125 -61 18 -22 50 -147 74 -288 40 -234 72 -256 62 -43 l-6 137 44 -55
c81 -100 277 -178 341 -136 20 13 27 14 35 4 31 -38 57 -114 82 -232 21 -103
30 -132 44 -134 15 -3 17 6 17 70 0 67 -8 130 -26 216 -5 25 -3 32 9 32 23 0
57 -49 57 -81 0 -16 5 -29 11 -29 8 0 10 17 7 50 -4 38 -12 58 -33 80 l-28 29
28 11 c57 22 100 -6 187 -120 19 -26 29 -32 38 -24 10 10 4 40 -24 105 -6 13
1 17 31 22 60 8 147 44 182 76 63 56 214 74 345 41 48 -12 90 -19 94 -16 3 4
-9 21 -27 40 l-33 34 107 70 106 70 94 -5 c144 -9 332 26 384 71 13 12 21 15
16 7 -11 -20 24 -7 129 45 125 64 176 97 153 102 -10 2 -24 -1 -30 -7 -7 -5
-51 -24 -97 -41 -46 -17 -89 -35 -96 -40 -6 -6 -13 -7 -16 -5 -3 3 -41 -3 -84
-14 -79 -20 -302 -47 -325 -39 -6 2 19 23 57 47 38 23 103 64 144 90 187 121
571 327 665 357 6 2 75 26 155 53 151 52 437 132 625 174 295 67 643 121 845
132 58 3 118 8 133 10 23 4 26 2 15 -8 -26 -25 -165 -125 -253 -182 -108 -70
-100 -64 -92 -72 9 -9 203 87 290 144 39 25 92 65 117 89 39 38 51 44 90 44
25 0 74 5 109 10 45 6 69 5 82 -3 16 -10 30 -6 87 26 181 102 232 122 317 125
l80 3 103 -61 c57 -34 117 -66 134 -72 22 -8 27 -15 22 -27 -33 -75 -43 -124
-44 -203 0 -48 5 -99 10 -113 19 -51 35 -21 52 100 24 160 78 259 126 229 19
-13 21 -43 10 -163 -8 -88 3 -83 26 13 9 38 22 77 29 86 10 14 12 6 14 -49 3
-77 32 -221 44 -221 5 0 9 33 9 73 0 96 23 234 49 292 l21 48 71 -7 72 -6 54
54 54 55 6 -29 c3 -20 12 -30 23 -30 19 0 27 32 51 195 6 44 20 111 31 149 25
89 57 122 124 131 27 4 54 8 59 10 31 11 35 5 29 -48z m87 36 c13 -16 12 -17
-3 -4 -10 7 -18 15 -18 17 0 8 8 3 21 -13z m-7311 -58 c13 -14 21 -25 18 -25
-2 0 -15 11 -28 25 -13 14 -21 25 -18 25 2 0 15 -11 28 -25z m6125 -250 c35
-10 77 -31 101 -50 48 -39 141 -171 129 -182 -4 -5 -10 -2 -12 5 -10 26 -153
131 -210 153 -111 43 -277 29 -363 -32 l-26 -17 -22 48 c-14 30 -35 56 -53 67
l-31 18 34 7 c64 13 389 1 453 -17z m-690 -29 c81 -23 140 -59 175 -108 35
-49 40 -74 11 -58 -34 18 -345 12 -518 -10 -291 -38 -568 -81 -758 -120 -160
-32 -149 -28 -134 -48 12 -16 12 -16 -5 -1 -16 15 -25 14 -109 -7 -153 -37
-246 -63 -382 -106 -71 -23 -135 -42 -141 -44 -5 -1 -74 -27 -153 -59 -171
-68 -301 -134 -521 -267 -397 -238 -564 -356 -652 -458 -24 -28 -51 -50 -60
-50 -9 0 -26 14 -39 31 -43 60 -6 166 103 297 122 146 261 252 532 404 76 43
140 78 143 78 2 0 46 20 96 44 115 55 253 113 382 161 55 20 109 41 120 45 39
17 368 120 383 120 9 0 26 10 39 22 21 20 22 23 6 40 -9 10 -14 18 -11 18 2 0
15 -12 29 -27 13 -14 19 -23 13 -20 -7 4 -17 0 -23 -7 -10 -11 1 -11 51 4 207
58 525 111 855 140 158 14 497 5 568 -14z m-1365 -20 c0 -2 -8 -10 -17 -17
-16 -13 -17 -12 -4 4 13 16 21 21 21 13z m-40 -39 c0 -2 -10 -12 -22 -23 l-23
-19 19 23 c18 21 26 27 26 19z m3570 -40 c0 -2 -17 -19 -37 -38 l-38 -34 34
38 c33 34 41 42 41 34z m-7160 -62 c13 -14 21 -25 18 -25 -2 0 -15 11 -28 25
-13 14 -21 25 -18 25 2 0 15 -11 28 -25z m7570 -200 c52 -52 92 -95 90 -95 -3
0 -48 43 -100 95 -52 52 -92 95 -90 95 3 0 48 -43 100 -95z m131 -132 c13 -16
12 -17 -3 -4 -10 7 -18 15 -18 17 0 8 8 3 21 -13z m-4571 -26 c0 -2 -17 -19
-37 -38 l-38 -34 34 38 c33 34 41 42 41 34z m-5170 -242 c0 -34 -1 -35 -37
-35 -27 0 -49 -10 -90 -42 -53 -40 -56 -41 -86 -28 -18 7 -54 15 -82 17 -42 4
-56 0 -89 -22 -29 -20 -46 -25 -65 -20 -63 16 -109 16 -141 0 -46 -24 -49 -11
-3 19 62 41 114 54 257 66 174 13 230 25 280 55 23 13 44 24 49 25 4 0 7 -16
7 -35z m6875 -168 c66 -72 196 -336 306 -622 80 -206 126 -325 149 -390 44
-122 108 -342 114 -390 6 -56 -8 -203 -29 -310 -28 -137 -48 -165 -85 -118
-24 30 -24 39 -5 73 8 14 14 52 15 85 0 48 -5 68 -24 96 -20 29 -22 39 -13 50
10 11 9 11 -5 0 -15 -11 -21 -10 -43 7 -83 65 -244 45 -327 -41 -37 -39 -68
-107 -68 -150 0 -35 31 -110 49 -121 6 -4 9 -12 6 -17 -3 -5 0 -6 8 -3 8 3 20
-2 27 -11 7 -8 19 -15 27 -15 11 0 60 -90 51 -94 -23 -12 -63 -28 -103 -41
l-50 -16 -28 33 c-46 55 -68 103 -53 119 21 22 46 96 46 132 -1 47 -40 118
-79 144 -108 72 -256 51 -345 -48 -27 -30 -48 -64 -52 -85 -10 -53 1 -119 24
-152 12 -16 18 -32 15 -36 -4 -4 0 -4 10 0 9 3 17 2 17 -4 0 -5 15 -17 33 -25
25 -12 44 -36 75 -93 44 -81 43 -99 -5 -91 -12 2 -20 1 -18 -3 2 -4 -31 -17
-73 -30 -42 -13 -84 -27 -92 -31 -8 -4 -62 -22 -120 -39 -151 -46 -161 -50
-200 -84 -31 -28 -32 -28 -11 -3 29 32 30 32 -45 8 -32 -10 -93 -29 -134 -41
-41 -12 -109 -32 -150 -45 -41 -13 -109 -33 -150 -45 -41 -12 -96 -28 -122
-36 -26 -8 -54 -14 -62 -14 -9 0 -16 -4 -16 -10 0 -5 -6 -7 -13 -4 -7 2 -39
-2 -71 -10 -55 -15 -61 -14 -105 6 -98 44 -251 162 -251 192 0 6 23 38 50 71
28 33 50 63 50 66 0 13 -29 31 -40 24 -16 -10 -58 -80 -66 -109 -11 -44 -23
-39 -49 20 -39 89 -137 370 -169 489 -86 309 -90 327 -128 535 -29 155 -32
403 -5 471 23 61 97 130 202 189 404 229 1256 504 1840 594 219 34 236 32 290
-27z m-3223 -110 c26 -53 27 -58 13 -91 -9 -20 -15 -67 -15 -109 l0 -74 -49
-6 c-70 -8 -164 -50 -241 -105 -48 -35 -79 -50 -113 -55 l-47 -7 0 78 c0 125
45 194 196 305 68 49 206 128 219 124 6 -2 22 -28 37 -60z m4668 -613 c96 3
187 8 201 11 23 6 27 2 41 -37 15 -40 86 -267 122 -388 9 -30 34 -116 57 -190
22 -74 46 -160 53 -190 8 -30 23 -84 34 -120 29 -94 97 -341 122 -440 12 -47
48 -193 81 -325 32 -132 63 -256 69 -275 19 -72 39 -165 36 -167 -2 -2 -93 41
-203 94 l-200 98 -5 75 c-5 79 -27 129 -88 195 -26 28 -27 34 -21 88 5 40 3
66 -5 83 -7 14 -9 22 -4 19 15 -9 11 16 -9 62 -11 22 -33 51 -50 64 -26 19
-31 29 -31 66 0 60 -18 98 -76 163 -84 93 -131 179 -179 325 -12 39 -32 90
-43 115 -11 25 -36 81 -55 125 -19 44 -48 109 -65 145 -16 36 -42 97 -57 135
-16 39 -32 75 -36 80 -15 20 -40 107 -35 120 2 7 0 17 -5 22 -5 5 -13 23 -18
39 l-9 30 102 -14 c69 -9 156 -12 276 -8z m-1131 -812 c61 -24 81 -54 85 -130
1 -34 -1 -62 -4 -62 -4 0 -21 31 -38 69 -17 38 -43 78 -58 90 -57 45 -171 15
-216 -57 -17 -27 -19 -43 -14 -85 14 -116 15 -109 -4 -90 -12 13 -14 20 -6 25
11 7 1 12 -17 9 -5 -1 -6 3 -2 9 3 5 1 10 -4 10 -17 0 -13 78 5 115 28 61 121
113 199 114 17 0 50 -8 74 -17z m-28 -71 c35 -36 37 -51 5 -51 -39 0 -75 -18
-128 -62 -27 -22 -51 -38 -54 -35 -11 11 -23 82 -18 104 5 20 37 48 74 65 8 4
32 7 53 7 30 1 45 -6 68 -28z m-484 -6 c46 -19 69 -40 88 -78 16 -33 20 -50 6
-28 -7 11 -12 6 -19 -20 l-10 -34 -25 55 c-29 65 -44 79 -92 90 -68 15 -134
-15 -174 -81 -25 -41 -26 -61 -5 -123 16 -46 17 -47 37 -29 l21 18 -20 -27
c-18 -25 -53 -50 -39 -28 3 5 -4 20 -15 32 -46 48 -52 104 -17 160 55 90 172
131 264 93z m-36 -58 c21 -14 35 -32 37 -47 2 -22 -1 -25 -30 -26 -18 -1 -43
-4 -55 -7 -30 -8 -89 -53 -98 -75 -6 -14 -10 -12 -21 13 -29 66 -3 126 67 151
49 18 62 17 100 -9z m603 -74 c13 -27 36 -63 50 -82 27 -37 26 -51 -5 -51 -24
0 -121 -60 -165 -101 l-31 -30 -35 78 c-49 106 -54 128 -33 159 21 33 109 74
157 74 35 0 40 -4 62 -47z m-3395 -115 c47 -143 151 -443 176 -508 10 -25 35
-89 56 -142 45 -112 47 -128 18 -193 -34 -77 -17 -146 57 -225 34 -36 113
-194 133 -265 18 -65 13 -121 -14 -175 -16 -32 -25 -66 -25 -97 l0 -48 -92
-43 c-50 -23 -93 -40 -95 -38 -12 12 -209 566 -343 966 -103 306 -231 730
-225 741 4 5 13 9 21 9 17 0 219 101 249 124 11 8 25 16 31 16 7 0 30 -55 53
-122z m2865 48 c8 -17 26 -57 40 -88 l26 -58 -38 -19 c-21 -11 -60 -37 -87
-60 -26 -22 -52 -38 -56 -36 -4 3 -28 48 -53 101 -37 76 -44 99 -36 115 6 10
8 19 5 19 -18 0 37 37 70 47 87 27 110 23 129 -21z m63 22 c-3 -8 -6 -5 -6 6
-1 11 2 17 5 13 3 -3 4 -12 1 -19z m573 -117 c0 -5 16 -28 36 -52 32 -39 35
-47 32 -93 -3 -28 -7 -58 -10 -66 -2 -8 -3 -12 -1 -7 3 4 9 7 15 7 7 0 6 -5
-2 -14 -6 -8 -19 -12 -27 -9 -11 4 -14 2 -9 -5 4 -7 1 -12 -9 -12 -9 0 -13 -4
-10 -10 3 -5 4 -10 1 -10 -2 0 -13 -3 -23 -6 -15 -5 -16 -4 -3 6 13 10 12 11
-3 6 -10 -3 -28 -6 -38 -6 -11 0 -17 -4 -14 -10 3 -5 1 -10 -4 -10 -6 0 -11 4
-11 9 0 5 -11 11 -25 13 -13 3 -22 1 -19 -4 4 -5 -3 -4 -13 3 -21 13 -96 112
-101 132 -4 18 69 74 147 114 68 34 91 40 91 24z m-529 -112 c12 -17 44 -53
71 -79 51 -50 58 -72 33 -120 -24 -46 -66 -70 -123 -70 -37 0 -55 5 -73 23
-40 37 -110 153 -103 170 8 22 137 105 166 107 4 0 17 -14 29 -31z m729 -28
c1 10 3 9 11 -4 6 -9 15 -15 20 -11 5 3 8 1 7 -4 -2 -5 8 -19 22 -31 14 -13
18 -19 10 -15 -13 7 -13 6 -1 -10 14 -17 22 -126 9 -126 -4 0 -15 -16 -24 -35
-10 -21 -26 -38 -40 -41 -13 -3 -21 -10 -18 -15 3 -5 -3 -6 -13 -2 -15 6 -13
8 10 18 15 6 25 14 22 17 -3 3 -22 -3 -42 -13 -20 -10 -40 -16 -46 -12 -6 3
-7 1 -3 -5 4 -7 15 -12 24 -13 14 0 13 -2 -3 -9 -11 -5 -27 -9 -35 -9 -9 0 -8
3 4 8 18 7 16 9 -14 19 -18 7 -45 12 -60 12 -14 0 -34 6 -43 13 -15 10 -5 12
55 9 55 -2 82 2 108 15 85 44 105 146 42 218 -18 20 -32 39 -32 43 0 4 7 -2
15 -12 11 -14 15 -16 15 -5z m-113 -48 c-3 -10 -5 -4 -5 12 0 17 2 24 5 18 2
-7 2 -21 0 -30z m-317 -34 c0 -4 -13 0 -29 9 -19 11 -26 19 -18 24 11 7 47
-18 47 -33z m1426 -1 l29 -33 -32 29 c-31 28 -38 36 -30 36 2 0 16 -15 33 -32z
m-1005 0 c11 -21 11 -22 -4 -9 -10 7 -17 17 -17 22 0 15 9 10 21 -13z m-32
-21 c0 -21 -1 -21 -9 -2 -12 28 -12 37 0 30 6 -3 10 -16 9 -28z m-450 -7 c10
-5 10 -9 2 -14 -6 -4 -11 -2 -11 3 0 6 -9 11 -19 11 -11 0 -23 5 -27 11 -7 11
25 5 55 -11z m432 -20 c6 0 8 -4 5 -8 -3 -5 3 -18 14 -30 17 -18 18 -22 4 -33
-13 -11 -15 -10 -12 2 2 12 -38 89 -47 89 -2 0 -1 -10 3 -22 3 -13 1 -19 -6
-15 -13 9 -8 43 7 40 6 -2 12 3 12 10 1 6 4 2 6 -10 2 -13 9 -23 14 -23z m51
-5 c6 -32 -5 -40 -23 -18 -12 14 -12 16 0 9 10 -7 12 -3 6 13 -3 11 -2 21 3
21 5 0 12 -11 14 -25z m-394 -99 c4 -47 1 -62 -19 -91 -13 -19 -29 -35 -36
-35 -6 0 -15 -9 -18 -20 -4 -11 -11 -17 -17 -14 -6 4 -5 10 3 16 17 12 -21 2
-70 -18 -18 -8 -41 -14 -50 -13 -9 1 -6 4 9 9 24 9 24 9 -4 7 -42 -3 -46 -27
-4 -28 26 -1 28 -3 9 -6 -30 -6 -77 17 -59 29 7 4 -6 6 -30 3 -40 -3 -42 -2
-31 13 21 27 23 28 16 10 -5 -15 1 -16 56 -11 141 12 226 108 179 203 -16 32
-17 40 -5 40 8 0 11 5 7 13 -4 6 8 -2 26 -20 28 -27 34 -41 38 -87z m-155 66
c-7 -2 -13 -8 -13 -13 0 -5 -5 -9 -11 -9 -8 0 -8 5 1 15 7 8 9 23 6 32 -6 15
-4 15 12 -2 14 -15 16 -21 5 -23z m432 8 c-3 -5 -13 -10 -21 -10 -8 0 -12 -5
-9 -10 4 -6 16 -8 28 -5 17 5 19 4 7 -4 -23 -16 -49 -13 -46 5 2 15 23 34 39
34 5 0 5 -4 2 -10z m65 -35 c0 -5 -5 -3 -10 5 -5 8 -10 20 -10 25 0 6 5 3 10
-5 5 -8 10 -19 10 -25z m-249 -42 c26 -54 50 -77 109 -108 l44 -23 -44 -7
c-25 -4 -76 -15 -115 -25 -131 -33 -122 -33 -87 3 53 55 72 143 46 212 -15 39
24 -4 47 -52z m-207 42 c-5 15 -4 17 5 9 10 -9 10 -16 -1 -33 -10 -18 -11 -23
0 -30 7 -4 10 -15 6 -26 -6 -14 -9 -11 -19 16 -6 19 -15 33 -21 32 -5 -1 -11
8 -11 19 -2 20 -1 20 13 2 14 -18 15 -18 8 6 -6 24 -6 25 10 5 l16 -20 -6 20z
m-54 -19 c0 -15 -20 -44 -20 -29 0 6 -2 18 -5 26 -4 8 0 14 10 14 8 0 15 -5
15 -11z m377 8 c-3 -3 -12 -4 -19 -1 -8 3 -5 6 6 6 11 1 17 -2 13 -5z m80 -18
c3 -3 -5 -6 -20 -6 -14 0 -28 4 -31 9 -7 10 41 8 51 -3z m-132 -26 c10 -11 16
-20 13 -20 -3 0 -13 9 -23 20 -10 11 -16 20 -13 20 3 0 13 -9 23 -20z m-399
-17 c-3 -20 -31 -30 -40 -14 -3 5 4 7 16 5 13 -2 17 -1 9 2 -11 5 -11 8 0 15
18 11 18 12 15 -8z m58 -19 c3 -8 2 -12 -4 -9 -6 3 -10 10 -10 16 0 14 7 11
14 -7z m47 7 c6 10 8 7 6 -9 -2 -12 -9 -28 -17 -35 -10 -9 -11 -9 -6 1 4 7 2
12 -6 13 -9 0 -10 2 -1 5 7 3 11 11 9 17 -1 7 -1 8 2 3 2 -4 8 -2 13 5z m-177
-30 c-2 -3 -12 3 -22 13 -16 17 -16 18 5 5 12 -7 20 -15 17 -18z m111 0 c-6
-5 -25 10 -25 20 0 5 6 4 14 -3 8 -7 12 -15 11 -17z m432 15 c7 -1 15 -5 19
-9 10 -10 -34 0 -53 13 -16 10 -16 11 2 5 11 -4 25 -8 32 -9z m1149 -61 c65
-41 105 -100 112 -164 4 -47 3 -51 -18 -51 -13 0 -24 8 -27 19 -6 25 -24 29
-183 42 -377 30 -999 -51 -1507 -196 -598 -172 -1140 -402 -1651 -700 l-83
-48 -89 26 c-49 15 -97 27 -108 27 -40 0 -30 15 35 53 97 57 504 264 665 338
118 54 135 65 125 79 -10 13 -10 13 4 3 17 -14 53 -7 107 21 44 23 321 129
462 177 399 136 974 275 1515 365 221 36 289 43 451 41 138 -2 142 -3 190 -32z
m-1721 6 c-3 -5 -1 -12 5 -16 5 -3 10 -1 10 6 0 7 3 10 6 6 3 -3 3 -11 -1 -17
-5 -8 -11 -8 -21 1 -12 10 -11 29 2 29 3 0 3 -4 -1 -9z m-865 -15 c0 -2 -8
-10 -17 -17 -16 -13 -17 -12 -4 4 13 16 21 21 21 13z m1090 -51 c0 -2 -6 -5
-13 -8 -8 -3 -14 1 -14 8 0 7 6 11 14 8 7 -3 13 -6 13 -8z m1376 -193 c5 -5
36 -14 69 -21 130 -27 290 -90 430 -171 190 -110 196 -112 219 -93 21 18 21
18 3 -3 -17 -21 -17 -22 75 -74 51 -30 104 -61 118 -71 14 -9 58 -38 98 -64
39 -26 72 -52 72 -56 0 -5 -15 -9 -34 -9 -58 0 -202 -48 -289 -96 -127 -71
-163 -99 -292 -228 -191 -192 -331 -420 -424 -690 -23 -65 -41 -129 -41 -142
0 -27 -16 -40 -33 -26 -25 21 -135 76 -217 109 -143 58 -219 74 -387 80 l-153
6 0 46 c0 62 -17 121 -35 121 -8 0 -15 -9 -15 -19 0 -37 -50 -176 -73 -202
-30 -36 -90 -72 -196 -117 l-89 -39 9 31 c11 40 11 147 0 165 -14 22 -28 4
-36 -46 -14 -100 -82 -206 -154 -242 -42 -22 -127 -41 -179 -41 l-37 0 -2 70
c-2 80 -18 140 -38 140 -10 0 -13 -21 -13 -91 0 -50 -4 -95 -9 -100 -22 -22
-292 -150 -338 -160 -61 -14 -135 -5 -116 14 7 7 31 12 54 12 39 0 42 2 50 36
12 51 -16 120 -106 264 -78 125 -261 335 -293 335 -24 0 -17 -14 56 -108 38
-50 92 -127 119 -170 51 -81 131 -235 131 -251 0 -5 -21 -14 -47 -20 -60 -15
-295 -115 -435 -184 l-106 -54 -12 46 c-65 254 -160 460 -336 726 -142 217
-236 334 -336 419 -23 20 -39 36 -35 36 29 0 158 -38 227 -68 96 -40 184 -99
250 -166 78 -81 96 -51 29 48 -50 74 -91 119 -143 157 -21 16 -36 29 -33 29 3
0 30 -5 59 -11 74 -16 170 -68 263 -144 44 -35 81 -62 83 -60 23 23 -154 206
-238 247 -30 14 -72 32 -93 38 -21 7 -37 14 -35 16 6 6 411 206 523 259 55 26
102 49 104 51 3 2 -13 23 -35 47 l-39 42 47 -44 c25 -24 50 -41 56 -37 14 8
119 -63 179 -122 49 -48 163 -193 163 -207 0 -4 11 -21 24 -38 13 -18 45 -75
71 -127 53 -106 53 -106 61 -97 4 4 2 19 -4 34 -5 15 -14 37 -18 48 -4 11 -8
22 -9 25 -40 157 -202 397 -328 488 l-50 36 39 17 c22 10 68 30 104 45 36 14
74 30 85 35 20 8 122 46 240 89 59 21 321 103 360 112 19 5 20 0 20 -186 0
-213 10 -329 28 -323 9 2 14 73 18 238 6 239 14 293 47 303 19 5 146 34 292
65 136 29 290 54 297 48 3 -3 -4 -19 -16 -36 -57 -80 -93 -285 -95 -536 0
-181 18 -400 35 -410 9 -6 17 109 24 365 5 197 17 289 54 426 11 40 95 178
123 201 31 26 608 57 634 35z m844 -177 c11 -13 10 -14 -4 -9 -9 3 -16 10 -16
15 0 13 6 11 20 -6z m235 -235 c10 -11 16 -20 13 -20 -3 0 -13 9 -23 20 -10
11 -16 20 -13 20 3 0 13 -9 23 -20z m-4395 -193 c0 -2 -10 -12 -22 -23 l-23
-19 19 23 c18 21 26 27 26 19z m-80 -80 c0 -2 -12 -14 -27 -28 l-28 -24 24 28
c23 25 31 32 31 24z m-60 -61 c0 -2 -8 -10 -17 -17 -16 -13 -17 -12 -4 4 13
16 21 21 21 13z m-40 -39 c0 -2 -17 -19 -37 -38 l-38 -34 34 38 c33 34 41 42
41 34z m4916 -23 c53 -25 406 -378 479 -478 11 -16 41 -57 68 -92 26 -35 47
-66 47 -69 0 -3 -47 -5 -104 -5 -218 0 -430 -73 -730 -250 -116 -68 -148 -105
-38 -44 223 125 455 219 619 250 117 22 267 24 287 4 22 -24 118 -196 160
-290 40 -88 99 -251 111 -307 8 -38 26 -34 -250 -58 -104 -9 -198 -21 -207
-26 -29 -16 -43 -86 -43 -219 0 -143 33 -412 49 -402 6 3 5 -2 -3 -11 -10 -13
-12 -36 -8 -90 11 -132 47 -196 132 -236 66 -31 196 -54 286 -49 79 3 79 3 79
-22 0 -49 -77 -313 -95 -326 -25 -19 -136 -59 -230 -85 -124 -33 -374 -38
-515 -9 -123 25 -202 48 -289 84 -34 15 -67 24 -74 20 -7 -4 -9 -4 -5 1 4 4
-29 29 -75 54 -45 26 -110 65 -144 88 -90 60 -77 29 15 -38 168 -121 329 -198
542 -260 113 -33 119 -34 305 -33 181 0 194 1 275 28 47 15 106 41 133 57 26
16 47 25 47 21 -1 -17 -81 -204 -111 -255 -5 -10 -20 -37 -31 -60 -21 -42
-141 -224 -200 -304 -26 -35 -29 -45 -18 -58 20 -24 37 -18 88 29 l47 43 35
-49 c41 -58 100 -105 265 -213 173 -114 241 -189 290 -319 33 -90 39 -154 18
-194 -58 -106 -255 -274 -449 -382 -184 -102 -444 -170 -649 -170 -386 1 -774
242 -1199 743 -46 54 -66 69 -66 48 0 -25 292 -365 396 -461 394 -364 777
-479 1214 -364 232 61 509 215 671 373 65 63 68 54 13 -46 -121 -220 -394
-425 -679 -509 -81 -24 -106 -27 -250 -27 -149 -1 -168 1 -276 31 -244 66
-433 169 -673 365 -297 244 -461 422 -595 647 -30 49 -58 87 -64 83 -6 -3 -7
-1 -3 5 3 6 -4 35 -17 64 -78 175 -101 274 -101 428 1 186 52 331 172 481 110
139 222 220 334 243 32 6 56 15 52 19 -4 3 5 1 20 -6 24 -11 37 -37 18 -37
-11 0 -57 -98 -50 -105 7 -8 71 65 123 140 96 141 141 259 155 409 l9 91 -40
67 c-29 47 -39 73 -34 88 5 16 12 19 28 14 80 -26 132 -29 190 -13 50 13 38
29 -22 29 -67 0 -179 56 -223 112 -26 33 -28 40 -13 34 29 -12 193 -21 318
-18 81 2 107 6 107 16 0 25 -123 59 -260 71 -137 11 -270 68 -254 108 4 11 14
15 32 11 48 -8 61 14 48 80 -14 73 -54 118 -268 305 -60 51 -108 95 -108 96 0
2 14 32 32 66 17 35 52 116 77 179 81 203 159 317 350 514 69 71 194 184 252
229 47 36 155 92 219 114 81 28 205 31 256 7z m-5036 -97 c0 -2 -17 -19 -37
-38 l-38 -34 34 38 c33 34 41 42 41 34z m5205 -17 c10 -11 16 -20 13 -20 -3 0
-13 9 -23 20 -10 11 -16 20 -13 20 3 0 13 -9 23 -20z m-5393 -67 c36 -17 69
-29 72 -27 3 2 4 1 1 -2 -2 -4 12 -19 33 -34 70 -51 197 -195 273 -310 235
-355 394 -718 415 -951 6 -72 5 -77 -17 -95 -43 -34 -105 -117 -147 -194 l-41
-75 -58 -12 c-71 -15 -93 -9 -93 22 0 33 -35 172 -54 217 -18 43 -33 55 -49
39 -8 -8 -4 -47 16 -145 31 -153 34 -227 12 -246 -20 -16 -19 -17 -33 60 -17
97 -73 199 -146 268 -64 59 -111 90 -122 79 -4 -4 18 -37 49 -75 78 -95 127
-201 135 -294 9 -98 6 -110 -30 -128 -71 -34 -128 -176 -128 -320 0 -137 50
-457 120 -765 11 -49 27 -125 35 -169 8 -43 21 -106 30 -138 8 -33 15 -61 15
-64 0 -2 -25 7 -56 21 -62 27 -100 32 -107 13 -6 -18 11 -48 27 -48 8 0 48
-33 89 -74 l75 -74 33 32 34 31 -33 -36 -33 -36 30 -49 c73 -117 101 -264 76
-404 -19 -112 -57 -198 -129 -292 -60 -79 -71 -90 -158 -160 -250 -203 -643
-267 -1088 -177 -234 47 -233 46 -306 69 -217 67 -270 84 -279 90 -5 4 -23 10
-40 14 -42 11 -270 127 -373 191 -48 29 -116 77 -152 105 -36 29 -83 66 -105
84 -133 105 -409 410 -448 496 -4 8 -19 33 -32 55 -67 104 -146 293 -180 425
-25 99 -26 103 -29 288 l-3 173 -29 32 -29 32 31 -28 31 -28 18 68 c42 157
137 316 265 443 144 142 283 215 480 252 66 12 303 4 344 -12 26 -9 33 -8 60
17 l31 28 -24 -27 c-19 -21 -21 -29 -10 -32 228 -80 361 -181 520 -393 30 -40
65 -89 79 -108 125 -180 341 -413 374 -402 24 8 14 36 -41 108 -32 41 -84 118
-117 170 -236 378 -320 488 -459 597 -97 76 -215 139 -314 167 -13 3 -23 12
-23 19 0 15 91 286 115 341 37 87 109 225 168 322 l61 103 41 -6 c142 -21 221
-63 370 -198 28 -25 78 -60 113 -77 56 -28 69 -31 126 -27 96 8 188 61 301
173 266 263 363 580 242 788 -46 77 -179 185 -254 203 -49 13 -20 31 137 91
140 53 189 54 292 6z m1869 0 c13 -16 12 -17 -3 -4 -10 7 -18 15 -18 17 0 8 8
3 21 -13z m-2363 -188 c42 -20 97 -49 123 -66 45 -29 47 -31 58 -102 13 -73 5
-142 -20 -189 -6 -11 -8 -22 -5 -26 20 -19 65 92 67 162 l1 41 16 -35 c37 -82
11 -243 -60 -370 -56 -99 -167 -229 -251 -293 -113 -85 -194 -99 -268 -45 -38
27 -185 151 -199 167 -3 4 -31 19 -63 35 -43 21 -78 30 -137 35 l-80 6 43 56
c23 31 53 72 67 90 43 57 91 111 179 201 l84 87 48 -19 c77 -29 177 -106 213
-163 26 -43 31 -47 34 -28 4 26 -45 106 -96 156 -20 20 -61 50 -91 67 l-55 32
65 59 c74 69 222 177 242 177 5 0 43 -16 85 -35z m6123 18 c13 -16 12 -17 -3
-4 -10 7 -18 15 -18 17 0 8 8 3 21 -13z m-2611 -520 c-8 -3 -22 -11 -30 -17
-8 -7 -35 -20 -59 -29 l-44 -16 39 34 c29 25 48 34 74 34 19 0 28 -3 20 -6z
m310 -13 c14 -5 51 -16 83 -25 32 -9 55 -20 52 -25 -3 -5 0 -7 8 -5 7 3 67
-21 133 -55 143 -72 172 -89 248 -146 32 -25 66 -49 75 -53 22 -13 16 -16 -80
-52 -234 -86 -1238 -419 -1263 -419 -6 0 -28 -9 -51 -20 -23 -11 -61 -24 -86
-29 -24 -6 -73 -19 -109 -30 -904 -274 -1465 -421 -1607 -421 -61 0 -165 29
-265 74 -32 14 -58 29 -58 34 0 4 10 12 23 17 12 6 21 17 19 27 -2 15 6 16 81
11 123 -8 147 7 210 137 39 82 62 113 135 188 l87 90 68 11 c37 6 100 16 140
22 137 22 322 60 437 90 63 16 120 27 128 24 7 -2 11 -1 8 4 -3 5 6 12 22 15
82 20 370 111 511 163 51 19 96 32 99 29 3 -4 12 0 21 7 9 7 75 35 146 62 72
27 163 64 204 83 40 18 89 36 107 39 19 3 34 9 34 13 0 4 15 13 33 20 17 7 83
37 145 67 65 31 122 53 133 50 10 -3 18 -2 17 2 0 3 0 9 1 13 1 8 77 0 111
-12z m-615 -128 c-6 -5 -37 -19 -70 -32 -33 -13 -82 -34 -108 -47 -27 -13 -53
-23 -58 -21 -12 4 82 73 96 70 6 -1 37 7 70 18 68 21 84 24 70 12z m-293 -123
c-81 -38 -381 -142 -582 -202 -191 -58 -671 -167 -730 -167 l-25 0 25 19 c38
30 247 136 325 166 39 14 96 38 128 52 l58 25 26 -26 c46 -46 130 -58 222 -30
49 14 222 94 286 131 23 14 53 18 125 19 64 0 106 6 130 17 19 8 40 15 45 15
6 0 -9 -9 -33 -19z m3747 -336 c16 -89 31 -235 31 -301 l0 -53 -122 4 c-68 2
-133 7 -145 11 -13 5 -23 4 -23 -1 0 -18 115 -46 209 -51 l94 -5 -7 -126 c-4
-69 -11 -130 -16 -135 -5 -5 -51 -7 -103 -4 -84 3 -100 7 -135 32 -65 45 -78
85 -118 369 -10 70 -22 127 -27 127 -16 0 -1 -358 16 -413 41 -128 112 -177
270 -185 82 -4 97 -7 97 -21 0 -60 -87 -77 -216 -42 -43 12 -97 31 -119 41
-65 31 -75 59 -85 227 -5 82 -16 186 -25 232 -18 91 -23 227 -11 279 l8 32 67
0 c87 0 222 17 269 34 72 26 77 24 91 -51z m-5984 -743 c10 -11 16 -20 13 -20
-3 0 -13 9 -23 20 -10 11 -16 20 -13 20 3 0 13 -9 23 -20z m4050 -350 c10 -11
16 -20 13 -20 -3 0 -13 9 -23 20 -10 11 -16 20 -13 20 3 0 13 -9 23 -20z"/>
<path d="M4669 10813 c-13 -16 -12 -17 4 -4 9 7 17 15 17 17 0 8 -8 3 -21 -13z"/>
<path d="M4608 10713 c6 -2 18 -2 25 0 6 3 1 5 -13 5 -14 0 -19 -2 -12 -5z"/>
<path d="M5410 10504 c-10 -12 -11 -17 -1 -27 10 -9 11 -8 5 7 -5 13 -4 17 4
12 6 -3 13 -2 16 3 11 17 -11 21 -24 5z"/>
<path d="M5380 10459 c0 -5 5 -7 10 -4 6 3 10 8 10 11 0 2 -4 4 -10 4 -5 0
-10 -5 -10 -11z"/>
<path d="M5476 10462 c-2 -4 4 -8 14 -8 10 0 16 4 14 8 -3 4 -9 8 -14 8 -5 0
-11 -4 -14 -8z"/>
<path d="M5439 10449 c-1 -2 -3 -14 -4 -26 -2 -18 1 -21 15 -13 18 10 40 -5
40 -27 0 -7 7 -13 16 -13 8 0 12 -5 9 -10 -4 -7 -13 -7 -26 0 -13 8 -19 7 -19
0 0 -13 17 -20 55 -24 18 -2 31 -11 36 -25 5 -11 14 -21 21 -21 6 0 22 -10 35
-22 13 -12 22 -17 22 -12 -2 10 -198 200 -200 193z"/>
<path d="M5555 10380 c-4 -6 1 -7 11 -3 14 5 16 3 10 -13 -5 -14 -4 -16 5 -7
12 12 5 33 -11 33 -5 0 -12 -4 -15 -10z"/>
<path d="M5630 10301 c-13 -13 -12 -14 5 -7 11 5 26 9 33 9 6 0 12 4 12 8 0
13 -36 6 -50 -10z"/>
<path d="M7069 9963 c-13 -16 -12 -17 4 -4 9 7 17 15 17 17 0 8 -8 3 -21 -13z"/>
<path d="M9500 8995 c0 -19 61 -135 69 -131 5 3 7 -2 4 -12 -2 -10 3 -24 11
-31 9 -8 16 -18 16 -23 0 -15 84 -120 126 -157 136 -120 319 -183 479 -166 85
9 88 31 8 40 -149 17 -287 60 -374 116 -109 71 -229 201 -300 326 -21 37 -39
55 -39 38z"/>
<path d="M8984 8683 c3 -16 8 -59 11 -98 8 -89 30 -168 61 -221 36 -64 157
-177 222 -209 97 -48 162 -62 162 -36 0 4 -37 26 -82 49 -109 54 -187 117
-248 200 -54 72 -71 116 -97 254 -9 48 -21 88 -26 88 -5 0 -6 -12 -3 -27z"/>
<path d="M8795 8594 c14 -99 45 -189 58 -173 7 8 -48 219 -57 219 -4 0 -5 -21
-1 -46z"/>
<path d="M10530 8530 c-8 -5 -27 -10 -42 -10 -18 0 -28 -5 -28 -15 0 -20 63
-20 80 0 16 20 9 37 -10 25z"/>
<path d="M9490 8278 c0 -18 46 -44 94 -53 54 -11 44 14 -15 36 -24 9 -52 20
-61 24 -12 5 -18 3 -18 -7z"/>
<path d="M3567 7924 c-3 -3 -2 -17 4 -31 5 -13 9 -39 10 -56 0 -31 1 -31 10
-8 15 37 -5 114 -24 95z"/>
<path d="M3560 7587 c0 -41 -39 -162 -81 -245 -65 -133 -197 -250 -301 -267
-60 -10 -60 -29 0 -23 168 16 342 204 387 416 17 84 19 142 5 142 -5 0 -10
-10 -10 -23z"/>
<path d="M4275 7590 c4 -14 10 -79 12 -145 4 -106 2 -126 -16 -168 -24 -55
-26 -67 -10 -67 5 0 20 21 32 48 36 80 26 303 -16 347 -6 6 -7 1 -2 -15z"/>
<path d="M3869 7220 c-14 -25 -34 -58 -44 -74 -18 -27 -18 -28 -1 -25 22 5 79
101 74 126 -2 13 -10 5 -29 -27z"/>
<path d="M8741 6946 c-78 -36 -130 -70 -121 -79 6 -7 161 55 197 78 13 9 21
20 18 25 -9 14 -12 13 -94 -24z"/>
<path d="M8977 6541 c-96 -19 -54 -57 52 -46 43 4 92 1 141 -9 78 -15 118 -6
64 14 -86 34 -202 52 -257 41z"/>
<path d="M6050 5663 c-63 -22 -217 -87 -225 -95 -7 -7 3 -9 31 -5 50 6 216 77
222 95 4 13 -3 14 -28 5z"/>
<path d="M5635 5459 c-4 -6 -5 -13 -2 -16 7 -7 27 6 27 18 0 12 -17 12 -25 -2z"/>
<path d="M5450 5368 c-59 -31 -72 -54 -28 -51 34 2 108 49 108 68 0 20 -16 17
-80 -17z"/>
<path d="M7405 8509 l20 -24 -22 19 c-18 15 -32 17 -68 13 -68 -10 -165 -58
-218 -110 -147 -144 -125 -343 52 -464 166 -114 400 -116 569 -3 94 63 142
147 142 249 0 107 -56 203 -154 266 -73 46 -138 65 -246 72 l-95 6 20 -24z
m46 -46 c13 -16 12 -17 -3 -4 -10 7 -18 15 -18 17 0 8 8 3 21 -13z"/>
<path d="M6560 8249 c-213 -55 -756 -263 -939 -360 -36 -19 -80 -49 -99 -66
-33 -32 -34 -35 -28 -85 11 -79 35 -157 69 -216 38 -69 65 -86 118 -78 45 7
309 92 409 132 36 15 81 32 100 39 230 86 582 244 617 277 47 44 23 185 -51
300 -55 86 -69 90 -196 57z m122 -56 c29 -34 27 -38 -15 -35 -30 3 -82 -10
-182 -44 -77 -26 -148 -47 -157 -48 -10 0 -18 -3 -18 -6 0 -6 -87 -35 -105
-35 -5 0 -12 -3 -15 -7 -3 -4 -55 -25 -115 -46 -146 -52 -387 -147 -453 -179
-30 -15 -58 -36 -62 -47 l-9 -21 0 21 c-1 26 37 67 56 60 8 -3 12 -2 9 3 -7
10 189 103 351 167 65 25 157 62 205 81 49 19 93 31 100 27 7 -4 10 -4 6 1 -8
9 66 37 237 90 127 39 146 41 167 18z m36 -115 c18 -11 37 -28 42 -38 16 -31
12 -95 -7 -112 -30 -25 -160 -87 -328 -154 -88 -36 -169 -69 -180 -74 -31 -15
-126 -51 -170 -65 -22 -8 -92 -32 -155 -55 -199 -71 -295 -92 -274 -58 4 7 2
8 -4 4 -19 -11 -39 45 -41 116 -2 57 1 69 20 87 13 12 27 21 32 21 4 0 34 12
65 26 31 15 68 30 82 34 14 5 54 20 90 34 236 90 371 139 570 206 200 67 194
66 258 28z"/>
<path d="M7023 7846 c-99 -24 -173 -106 -181 -200 -10 -120 82 -212 222 -223
55 -5 68 -2 125 28 83 44 123 97 129 174 9 116 -56 198 -177 224 -60 13 -51
13 -118 -3z m157 -51 c43 -22 82 -79 87 -128 6 -50 -20 -123 -38 -111 -7 4 -9
3 -5 -4 4 -6 -14 -25 -41 -44 -139 -95 -334 1 -307 152 13 70 65 128 135 149
42 13 132 5 169 -14z"/>
<path d="M7035 7792 c-78 -29 -115 -75 -115 -144 0 -54 27 -93 76 -114 45 -19
78 -18 122 5 20 10 40 19 45 20 4 1 7 3 6 7 0 3 7 17 16 31 32 47 35 78 13
122 -10 22 -30 47 -43 55 -28 18 -92 28 -120 18z m113 -58 c48 -55 15 -148
-63 -174 -70 -23 -145 21 -145 85 0 101 142 162 208 89z"/>
<path d="M7515 7681 c-142 -37 -221 -178 -166 -296 38 -83 115 -127 218 -127
301 2 335 404 36 427 -32 2 -71 1 -88 -4z m131 -44 c51 -22 85 -49 80 -64 -3
-8 -2 -12 3 -8 15 8 34 -64 28 -102 -9 -55 -50 -107 -106 -137 -97 -50 -207
-25 -261 61 -16 26 -30 60 -30 75 0 33 34 109 59 132 56 51 164 71 227 43z"/>
<path d="M7485 7607 c-28 -15 -47 -37 -64 -71 -23 -46 -24 -51 -10 -90 30 -85
141 -115 227 -59 45 29 62 63 62 123 0 97 -119 151 -215 97z m144 -33 c42 -35
44 -95 3 -143 -25 -30 -36 -35 -85 -39 -52 -4 -58 -2 -87 26 -39 40 -41 88 -3
132 48 57 121 67 172 24z"/>
<path d="M5840 7431 c-84 -28 -163 -66 -184 -89 -16 -19 -18 -31 -11 -99 15
-173 104 -510 167 -635 27 -55 30 -58 67 -58 80 0 218 70 319 161 46 42 45 65
-3 259 -55 220 -144 448 -183 469 -30 16 -109 12 -172 -8z m144 -40 c4 -5 -7
-12 -23 -16 -17 -3 -64 -20 -106 -36 -42 -16 -82 -26 -88 -22 -7 3 -9 2 -4 -2
4 -5 -3 -19 -15 -32 l-21 -23 22 -100 c12 -55 24 -112 27 -127 3 -15 16 -68
30 -118 14 -49 32 -115 40 -145 14 -54 35 -117 49 -152 12 -31 -23 -21 -39 11
-26 49 -98 287 -121 397 -8 40 -17 78 -20 85 -2 8 -9 52 -15 98 -12 100 -10
103 78 143 93 42 193 61 206 39z m86 -191 c75 -214 109 -340 110 -407 0 -28
-8 -38 -62 -76 -73 -52 -124 -82 -154 -91 -20 -6 -25 2 -57 106 -36 117 -111
412 -122 484 -6 39 -5 41 32 57 66 29 177 67 192 64 8 -1 33 -58 61 -137z"/>
<path d="M8005 7189 c-326 -14 -730 -118 -1333 -343 -317 -118 -482 -195 -627
-291 -105 -70 -143 -109 -125 -130 18 -21 22 -20 82 28 148 121 323 205 689
332 169 59 519 175 558 185 60 15 154 41 191 52 162 47 454 95 622 103 61 3
113 7 116 10 10 10 47 5 76 -10 32 -17 49 -20 26 -5 -11 7 -2 9 33 8 55 -2 70
8 42 28 -47 35 -130 43 -350 33z"/>
<path d="M8180 7096 c0 -2 7 -7 16 -10 8 -3 12 -2 9 4 -6 10 -25 14 -25 6z"/>
<path d="M5886 6332 c-3 -5 1 -9 9 -9 8 0 12 4 9 9 -3 4 -7 8 -9 8 -2 0 -6 -4
-9 -8z"/>
<path d="M8510 6300 c-8 -5 -12 -12 -9 -15 4 -3 12 1 19 10 14 17 11 19 -10 5z"/>
<path d="M8940 5753 c-128 -139 -207 -266 -250 -400 -24 -78 -21 -125 6 -89 8
11 14 26 14 33 0 22 97 220 143 290 24 38 73 105 110 151 37 45 67 85 67 87 0
17 -27 -5 -90 -72z"/>
<path d="M9061 4973 c-53 -59 -88 -123 -121 -219 -32 -92 -7 -84 29 10 32 86
80 166 132 221 16 17 29 34 29 38 0 18 -23 2 -69 -50z"/>
<path d="M10164 4305 c-39 -30 -93 -78 -120 -108 -58 -63 -112 -157 -92 -157
8 0 23 19 35 43 30 62 66 101 170 184 83 66 109 94 86 93 -5 -1 -40 -25 -79
-55z"/>
<path d="M10727 2639 c14 -14 274 -55 297 -46 34 13 3 27 -62 27 -37 0 -98 7
-137 15 -86 18 -113 19 -98 4z"/>
<path d="M9760 2298 c1 -7 7 -42 14 -76 18 -84 70 -184 128 -247 45 -50 149
-115 182 -115 30 0 16 15 -36 39 -66 30 -139 99 -183 171 -35 58 -85 188 -85
221 0 10 -4 19 -10 19 -5 0 -10 -6 -10 -12z"/>
<path d="M10668 1589 c17 -18 282 -27 282 -10 0 7 -37 11 -107 11 -60 0 -126
3 -148 6 -34 6 -38 4 -27 -7z"/>
<path d="M3105 2665 c-73 -21 -119 -43 -217 -103 -78 -48 -105 -72 -80 -72 4
0 43 18 87 40 112 55 192 74 285 66 103 -9 114 -10 120 -17 3 -3 32 -15 65
-27 129 -44 361 -184 490 -296 133 -115 281 -279 473 -525 15 -19 43 -53 62
-76 19 -22 49 -59 65 -80 71 -94 336 -356 407 -403 14 -9 43 -29 66 -44 66
-44 171 -94 266 -127 72 -25 122 -34 250 -45 170 -16 228 -30 284 -72 22 -17
37 -23 43 -17 7 7 -12 33 -53 75 -48 49 -75 69 -113 81 -92 29 -114 31 -138
10 -17 -14 -19 -15 -9 -1 12 15 9 18 -25 23 -90 15 -234 59 -310 95 -74 35
-208 115 -239 143 -7 7 -48 43 -91 82 -102 91 -202 203 -413 463 -346 426
-516 577 -814 721 -138 66 -190 85 -212 77 -8 -3 -13 -2 -10 3 3 5 -14 14 -37
20 -76 19 -150 21 -202 6z"/>
<path d="M5138 4218 c-27 -56 -122 -161 -181 -202 -108 -75 -188 -62 -334 56
-110 88 -128 97 -208 107 -81 9 -92 1 -23 -16 69 -18 143 -63 232 -141 97 -86
140 -105 219 -100 84 5 149 38 223 113 45 46 68 80 87 129 15 36 27 71 27 76
0 22 -27 8 -42 -22z"/>
<path d="M8685 4080 c3 -5 8 -10 11 -10 2 0 4 5 4 10 0 6 -5 10 -11 10 -5 0
-7 -4 -4 -10z"/>
<path d="M8242 3900 c0 -14 2 -19 5 -12 2 6 2 18 0 25 -3 6 -5 1 -5 -13z"/>
<path d="M8439 3903 c-13 -16 -12 -17 4 -4 9 7 17 15 17 17 0 8 -8 3 -21 -13z"/>
<path d="M8081 3884 c0 -11 3 -14 6 -6 3 7 2 16 -1 19 -3 4 -6 -2 -5 -13z"/>
<path d="M8435 3820 c3 -5 8 -10 11 -10 2 0 4 5 4 10 0 6 -5 10 -11 10 -5 0
-7 -4 -4 -10z"/>
<path d="M8202 3780 c0 -14 2 -19 5 -12 2 6 2 18 0 25 -3 6 -5 1 -5 -13z"/>
<path d="M7844 3658 l-19 -23 25 20 c14 11 27 21 29 22 2 2 0 3 -6 3 -5 0 -18
-10 -29 -22z"/>
<path d="M8060 3616 c0 -2 8 -10 18 -17 15 -13 16 -12 3 4 -13 16 -21 21 -21
13z"/>
<path d="M7823 3515 c-3 -9 -3 -18 -1 -21 3 -3 8 4 11 16 6 23 -1 27 -10 5z"/>
<path d="M7981 3504 c0 -11 3 -14 6 -6 3 7 2 16 -1 19 -3 4 -6 -2 -5 -13z"/>
<path d="M7772 3460 c0 -14 2 -19 5 -12 2 6 2 18 0 25 -3 6 -5 1 -5 -13z"/>
<path d="M7990 3470 c-9 -6 -10 -10 -3 -10 6 0 15 5 18 10 8 12 4 12 -15 0z"/>
<path d="M7950 3429 c-22 -18 -22 -19 -3 -10 12 6 25 16 28 21 9 15 3 12 -25
-11z"/>
<path d="M6364 3378 l-19 -23 23 19 c12 11 22 21 22 23 0 8 -8 2 -26 -19z"/>
</g>
</svg>
