<?xml version="1.0" standalone="no"?>
<!DOCTYPE svg PUBLIC "-//W3C//DTD SVG 20010904//EN"
 "http://www.w3.org/TR/2001/REC-SVG-20010904/DTD/svg10.dtd">
<svg version="1.0" xmlns="http://www.w3.org/2000/svg"
 width="250.000000pt" height="336.000000pt" viewBox="0 0 250.000000 336.000000"
 preserveAspectRatio="xMidYMid meet">

<g transform="translate(0.000000,336.000000) scale(0.100000,-0.100000)"
fill="#000000" stroke="none">
<path d="M1133 3263 c-16 -6 -17 -45 -1 -61 7 -7 20 -12 30 -12 10 0 18 -1 18
-3 0 -2 18 -50 39 -108 58 -156 58 -144 11 -158 -38 -11 -45 -10 -103 18 -209
102 -482 15 -579 -184 -19 -39 -29 -47 -63 -56 -41 -10 -42 -12 -73 -97 l-31
-87 21 -120 c11 -66 35 -179 52 -251 l32 -131 -39 -54 c-51 -70 -113 -198
-132 -275 -9 -34 -19 -103 -23 -154 l-7 -91 -60 -21 c-69 -23 -107 -53 -103
-83 3 -18 9 -20 71 -16 37 1 67 0 67 -4 0 -4 -23 -32 -51 -62 -33 -37 -49 -63
-47 -77 5 -36 41 -31 92 13 49 42 85 65 91 59 3 -2 -2 -26 -10 -53 -19 -63
-19 -119 0 -135 19 -16 18 -17 74 77 25 42 59 86 75 97 l28 21 17 -25 c9 -14
30 -41 47 -60 28 -30 34 -32 48 -21 22 18 20 74 -4 121 -11 22 -20 59 -20 85
0 48 27 184 39 197 4 4 27 -38 51 -93 l44 -100 47 6 c39 6 47 4 53 -12 4 -10
7 -108 6 -218 -1 -245 4 -268 106 -472 l75 -152 -36 -97 c-47 -126 -56 -214
-25 -263 l21 -33 83 4 c93 5 179 39 216 85 25 32 48 106 62 205 l12 78 -66
137 c-70 145 -99 223 -100 270 -1 38 56 182 95 240 l32 48 60 -1 c63 -1 199
-36 211 -55 7 -12 -94 -249 -107 -249 -5 0 -16 -14 -25 -32 -29 -56 -3 -192
64 -328 32 -65 65 -91 124 -97 52 -6 162 19 198 46 57 41 49 137 -26 300 l-36
80 26 33 c33 43 101 189 118 251 11 42 10 51 -6 82 -31 57 -139 185 -245 290
-56 55 -101 108 -101 118 0 10 14 24 35 34 42 20 42 20 14 200 -12 73 -18 137
-14 141 10 10 245 4 340 -9 l80 -10 60 -65 c45 -47 67 -64 87 -64 45 0 44 45
-2 110 -11 16 -20 33 -20 39 0 20 56 40 146 51 49 7 94 16 99 22 18 17 -40 56
-92 63 -112 14 -114 21 -22 65 72 34 89 47 89 71 0 28 -32 31 -101 9 -35 -11
-69 -20 -76 -20 -15 0 -7 23 25 72 20 31 22 41 12 53 -23 28 -53 16 -110 -42
-54 -56 -57 -58 -83 -45 -18 9 -112 18 -269 25 l-241 12 -47 180 c-92 349 -78
319 -171 394 -11 9 -35 61 -54 119 -19 56 -41 116 -50 132 -9 18 -13 40 -9 55
10 41 -22 65 -63 48z m-17 -337 c47 -24 88 -53 115 -84 80 -89 154 -287 165
-437 6 -84 -9 -116 -79 -164 -132 -90 -460 -169 -594 -142 -99 20 -122 48
-168 207 -84 290 -27 501 164 602 87 47 153 63 245 58 65 -4 91 -10 152 -40z
m160 -41 c7 -28 24 -34 24 -9 0 12 6 11 29 -8 15 -13 27 -25 25 -26 -1 -2 -20
-8 -40 -12 -36 -8 -41 -7 -71 27 -39 42 -38 40 -15 46 35 9 42 7 48 -18z
m-773 -255 c-8 -50 -10 -54 -50 -71 l-42 -18 23 62 c15 41 31 66 47 74 13 7
25 11 26 9 2 -2 0 -27 -4 -56z m1717 -257 c0 -5 -12 -26 -25 -48 -27 -44 -32
-73 -12 -81 7 -2 39 5 71 16 71 24 96 25 96 5 0 -10 -25 -27 -62 -44 -52 -23
-123 -78 -107 -82 2 -1 42 -7 88 -14 46 -7 90 -20 99 -28 17 -18 21 -17 -108
-36 -74 -12 -116 -30 -126 -55 -3 -8 9 -35 25 -62 37 -57 39 -74 9 -74 -13 0
-40 20 -69 51 l-47 51 16 37 c11 26 15 69 15 154 l0 118 47 50 c28 30 55 49
68 49 12 0 22 -3 22 -7z m-755 -100 c62 -99 74 -172 48 -280 -12 -50 -20 -8
-16 74 l5 88 -46 88 c-52 98 -47 117 9 30z m340 27 c110 -6 210 -13 222 -16
30 -8 37 -34 35 -139 -1 -92 -12 -151 -28 -148 -82 15 -210 25 -336 26 l-158
1 0 66 c0 56 -6 77 -37 140 -21 41 -39 79 -41 83 -2 4 29 5 69 2 41 -3 164
-10 274 -15z m-362 -67 c33 -66 34 -73 41 -224 5 -120 12 -174 30 -240 51
-177 44 -216 -59 -327 -68 -74 -116 -104 -205 -128 -85 -23 -286 -24 -345 -2
-38 14 -42 20 -74 104 -18 49 -51 133 -71 187 -37 96 -38 99 -23 135 9 21 16
69 17 109 1 66 -2 78 -45 161 -43 85 -44 90 -22 81 14 -5 59 -9 102 -9 206 0
489 90 582 186 18 19 34 34 36 34 1 0 18 -30 36 -67z m-742 -241 c38 -73 47
-146 29 -221 -14 -60 -36 -70 -27 -13 22 136 22 141 -27 240 -25 51 -46 96
-46 100 1 14 40 -45 71 -106z m-41 -1 c43 -83 43 -84 36 -163 -5 -55 -14 -95
-31 -128 -31 -60 -74 -224 -82 -309 l-6 -63 -42 5 c-54 8 -144 41 -187 70 -30
20 -33 28 -36 76 -9 160 70 381 181 508 28 32 117 97 123 90 1 -1 21 -40 44
-86z m1091 -596 c106 -120 159 -195 159 -225 0 -34 -77 -209 -116 -267 -70
-101 -183 -129 -255 -62 -35 33 -37 26 30 175 27 60 46 114 44 121 -5 14 -132
56 -201 68 l-42 7 22 19 23 20 -35 -17 c-19 -10 -60 -25 -90 -35 -30 -10 -45
-18 -32 -18 27 -1 27 -5 3 -39 -22 -32 -45 -83 -76 -172 l-22 -66 19 -73 c10
-41 35 -109 55 -153 l36 -79 -34 -36 c-54 -57 -130 -79 -180 -53 -25 14 -165
292 -184 367 -11 41 -15 111 -15 241 l0 184 23 -6 c79 -23 181 -30 269 -18
131 16 185 35 250 87 68 53 146 149 155 187 l5 28 49 -41 c27 -22 90 -87 140
-144z m-1419 -5 c42 -31 180 -80 223 -80 28 0 63 -51 72 -103 11 -68 -41 -50
-83 29 -10 18 -24 34 -31 34 -24 0 -79 -58 -117 -124 -22 -37 -43 -69 -47 -71
-19 -12 -19 41 0 110 12 41 21 79 21 85 0 18 -61 -13 -109 -56 -89 -80 -112
-49 -30 40 44 49 49 58 38 72 -11 13 -25 15 -71 10 -47 -6 -58 -4 -58 7 0 8 6
20 14 26 13 11 112 50 129 51 4 0 26 -14 49 -30z m1189 -560 c56 -55 143 -60
216 -13 27 18 24 21 53 -37 34 -67 70 -179 70 -217 0 -31 -4 -36 -47 -55 -66
-28 -174 -36 -208 -14 -31 21 -65 87 -99 194 -23 75 -35 172 -20 172 3 0 19
-13 35 -30z m-216 -284 c7 -35 -16 -168 -41 -240 -31 -86 -109 -129 -227 -124
l-72 3 0 65 c0 50 8 87 34 157 33 87 35 91 58 82 60 -23 144 3 197 60 17 17
33 31 37 31 5 0 11 -15 14 -34z"/>
<path d="M884 2731 c-185 -50 -323 -167 -324 -275 0 -16 7 -56 16 -88 33 -118
128 -186 273 -195 250 -16 485 140 482 321 -1 110 -42 180 -128 222 -76 38
-211 44 -319 15z m239 -41 c26 -23 58 -66 74 -98 24 -49 28 -69 28 -142 -1
-117 -26 -169 -98 -204 -108 -53 -248 -71 -306 -41 -45 23 -108 102 -127 158
-33 97 -18 231 32 280 12 13 58 35 101 50 100 33 105 34 184 36 64 1 68 0 112
-39z m145 -122 c16 -16 15 -53 -2 -67 -17 -14 -21 -8 -30 42 -7 39 7 50 32 25z
m-593 -226 c-2 -2 -13 1 -24 8 -24 12 -29 58 -9 78 9 9 15 2 24 -35 7 -27 11
-49 9 -51z"/>
<path d="M994 2670 c-60 -24 -72 -109 -25 -162 25 -28 36 -33 74 -33 80 0 125
68 92 139 -25 52 -88 77 -141 56z m107 -39 c37 -38 39 -82 4 -116 -69 -70
-186 16 -141 103 18 35 28 40 74 41 24 1 42 -7 63 -28z"/>
<path d="M1005 2571 c-8 -15 3 -31 21 -31 9 0 14 7 12 17 -4 20 -24 28 -33 14z"/>
<path d="M782 2614 c-66 -33 -81 -112 -33 -166 54 -61 144 -36 171 48 12 35
-3 87 -32 111 -26 22 -71 24 -106 7z m105 -30 c22 -22 25 -32 20 -67 -4 -28
-14 -49 -32 -64 -85 -74 -186 48 -106 128 38 38 82 39 118 3z"/>
<path d="M830 2520 c0 -19 20 -27 33 -13 8 7 -11 33 -24 33 -5 0 -9 -9 -9 -20z"/>
<path d="M980 2430 c-8 -5 -28 -10 -45 -11 -26 0 -27 -2 -10 -9 31 -13 41 -12
66 10 25 20 16 27 -11 10z"/>
<path d="M1067 2329 c-9 -5 -54 -18 -100 -29 -69 -15 -75 -18 -41 -19 50 -1
137 24 154 44 14 17 12 18 -13 4z"/>
<path d="M1215 1985 c-49 -13 -115 -32 -145 -43 l-55 -19 2 -49 c2 -51 43
-221 67 -279 13 -31 19 -34 71 -40 98 -13 215 24 269 84 18 20 18 24 2 113
-19 100 -49 200 -72 236 -18 27 -26 27 -139 -3z m111 -10 c-31 -24 -173 -67
-239 -72 -82 -7 -67 8 43 41 126 38 152 44 185 45 28 0 29 -1 11 -14z m42 -72
c27 -73 39 -124 47 -194 l7 -55 -40 -28 c-22 -15 -61 -34 -88 -42 -58 -17
-155 -18 -176 -1 -9 6 -26 44 -38 82 -22 72 -52 207 -48 210 2 1 38 7 80 13
43 6 110 25 150 41 40 16 76 29 79 30 4 1 16 -25 27 -56z"/>
<path d="M1281 1901 c-17 -11 -10 -92 15 -164 12 -35 22 -49 40 -53 57 -14 69
46 31 156 -19 55 -26 65 -47 68 -14 1 -31 -2 -39 -7z m71 -66 c9 -27 18 -68
20 -90 3 -35 0 -40 -19 -43 -28 -4 -51 46 -60 131 -6 58 -6 59 18 55 19 -2 28
-14 41 -53z"/>
<path d="M1082 1858 c-30 -30 -2 -86 37 -73 29 9 36 42 15 66 -20 22 -35 24
-52 7z m46 -31 c4 -21 -27 -35 -38 -17 -12 19 0 42 19 38 9 -2 17 -11 19 -21z"/>
<path d="M1102 1758 c-36 -36 11 -96 49 -62 24 21 24 36 1 57 -22 20 -34 21
-50 5z m45 -24 c3 -8 1 -20 -5 -26 -15 -15 -43 8 -35 28 7 19 32 18 40 -2z"/>
<path d="M1122 1658 c-29 -29 -3 -72 40 -66 19 2 23 9 23 38 0 30 -4 35 -25
38 -14 2 -31 -3 -38 -10z m56 -25 c5 -17 -26 -29 -40 -15 -6 6 -7 15 -3 22 9
14 37 9 43 -7z"/>
</g>
</svg>
